<svg width="404" height="405" viewBox="0 0 404 405" fill="none" xmlns="http://www.w3.org/2000/svg">
<path d="M392.133 69.309C407.914 53.5131 407.914 27.8605 392.133 12.0646C376.351 -3.73126 350.723 -3.73126 334.941 12.0646L202 145.256L68.9325 12.191C53.1513 -3.6049 27.5225 -3.6049 11.7413 12.191C-4.03998 27.9869 -4.03998 53.6394 11.7413 69.4353L144.809 202.5L11.8675 335.691C-3.91373 351.487 -3.91373 377.139 11.8675 392.935C27.6488 408.731 53.2775 408.731 69.0588 392.935L202 259.744L335.068 392.809C350.849 408.605 376.478 408.605 392.259 392.809C408.04 377.013 408.04 351.361 392.259 335.565L259.191 202.5L392.133 69.309Z" fill="#E4DDAD"/>
</svg>
