<svg width="486" height="487" viewBox="0 0 486 487" fill="none" xmlns="http://www.w3.org/2000/svg">
<path d="M451.286 0.6875H34.6058C15.5129 0.6875 0 16.4053 0 35.7002V451.3C0 470.595 15.5129 486.312 34.6058 486.312H451.286C470.379 486.312 486 470.595 486 451.3V35.7002C486 16.4053 470.379 0.6875 451.286 0.6875ZM146.885 416.938H74.8527V185.182H146.993V416.938H146.885ZM110.869 153.529C87.7621 153.529 69.1031 134.776 69.1031 111.796C69.1031 88.8154 87.7621 70.0625 110.869 70.0625C133.867 70.0625 152.634 88.8154 152.634 111.796C152.634 134.885 133.975 153.529 110.869 153.529ZM416.897 416.938H344.865V304.203C344.865 277.32 344.322 242.741 307.438 242.741C269.904 242.741 264.154 272.009 264.154 302.252V416.938H192.122V185.182H261.225V216.834H262.201C271.856 198.623 295.397 179.437 330.437 179.437C403.337 179.437 416.897 227.457 416.897 289.895V416.938Z" fill="#E4DDAD"/>
</svg>
